HIERARCHY
ROOT Hips
{
	OFFSET 55.235100 -11.689315 96.007401
	CHANNELS 6 Xposition Yposition Zposition Xrotation Yrotation Zrotation
	JOINT spine
	{
		OFFSET 0.000000 -0.467661 8.132500
		CHANNELS 3 Xrotation Yrotation Zrotation
		JOINT spine1
		{
			OFFSET 0.000000 -0.000002 10.349800
			CHANNELS 3 Xrotation Yrotation Zrotation
			JOINT spine2
			{
				OFFSET 0.000000 -0.000001 9.916992
				CHANNELS 3 Xrotation Yrotation Zrotation
				JOINT Neck
				{
					OFFSET 0.000000 -1.213904 25.460999
					CHANNELS 3 Xrotation Yrotation Zrotation
					JOINT Head
					{
						OFFSET 0.000000 -0.000001 7.692444
						CHANNELS 3 Xrotation Yrotation Zrotation
						End Site
						{
							OFFSET 0.000000 6.140627 18.619995
						}
					}
				}
				JOINT RightShoulder
				{
					OFFSET -4.175751 0.581443 10.709595
					CHANNELS 3 Xrotation Yrotation Zrotation
					JOINT RightArm
					{
						OFFSET 0.000000 -0.000002 14.046600
						CHANNELS 3 Xrotation Yrotation Zrotation
						JOINT RightArmRoll
						{
							OFFSET 0.000000 -0.000002 7.090988
							CHANNELS 3 Xrotation Yrotation Zrotation
							JOINT RightForeArm
							{
								OFFSET 0.000000 -0.000003 20.653503
								CHANNELS 3 Xrotation Yrotation Zrotation
								JOINT RightForeArmRoll
								{
									OFFSET 0.000000 -0.000002 7.957184
									CHANNELS 3 Xrotation Yrotation Zrotation
									JOINT RightHand
									{
										OFFSET 0.000000 -0.000002 15.968292
										CHANNELS 3 Xrotation Yrotation Zrotation
										End Site
										{
											OFFSET 0.000000 0.000000 0.100006
										}
									}
								}
							}
						}
					}
				}
				JOINT LeftShoulder
				{
					OFFSET 4.175751 0.581443 10.709595
					CHANNELS 3 Xrotation Yrotation Zrotation
					JOINT LeftArm
					{
						OFFSET 0.000000 -0.000002 14.046600
						CHANNELS 3 Xrotation Yrotation Zrotation
						JOINT LeftArmRoll
						{
							OFFSET 0.000000 -0.000002 7.090988
							CHANNELS 3 Xrotation Yrotation Zrotation
							JOINT LeftForeArm
							{
								OFFSET 0.000000 -0.000003 20.653503
								CHANNELS 3 Xrotation Yrotation Zrotation
								JOINT LeftForeArmRoll
								{
									OFFSET 0.000000 -0.000002 7.957184
									CHANNELS 3 Xrotation Yrotation Zrotation
									JOINT LeftHand
									{
										OFFSET 0.000000 -0.000002 15.968292
										CHANNELS 3 Xrotation Yrotation Zrotation
										End Site
										{
											OFFSET 0.000000 0.000000 0.100006
										}
									}
								}
							}
						}
					}
				}
			}
		}
	}
	JOINT RightUpLeg
	{
		OFFSET -7.208340 1.108840 -1.321823
		CHANNELS 3 Xrotation Yrotation Zrotation
		JOINT RightUpLegRoll
		{
			OFFSET 0.000000 -0.000003 18.723801
			CHANNELS 3 Xrotation Yrotation Zrotation
			JOINT RightLeg
			{
				OFFSET 0.000000 0.000004 -23.186600
				CHANNELS 3 Xrotation Yrotation Zrotation
				JOINT RightLegRoll
				{
					OFFSET 0.000000 -0.000004 23.262398
					CHANNELS 3 Xrotation Yrotation Zrotation
					JOINT RightFoot
					{
						OFFSET 0.000000 -0.000004 19.362099
						CHANNELS 3 Xrotation Yrotation Zrotation
						JOINT RightToeBase
						{
							OFFSET 0.000000 -0.000002 16.185699
							CHANNELS 3 Xrotation Yrotation Zrotation
							End Site
							{
								OFFSET 0.006859 0.903521 7.838623
							}
						}
					}
				}
			}
		}
	}
	JOINT LeftUpLeg
	{
		OFFSET 7.208340 1.108840 -1.321823
		CHANNELS 3 Xrotation Yrotation Zrotation
		JOINT LeftUpLegRoll
		{
			OFFSET 0.000000 -0.000003 18.723900
			CHANNELS 3 Xrotation Yrotation Zrotation
			JOINT LeftLeg
			{
				OFFSET 0.000000 -0.000004 23.186501
				CHANNELS 3 Xrotation Yrotation Zrotation
				JOINT LeftLegRoll
				{
					OFFSET 0.000000 -0.000004 23.477509
					CHANNELS 3 Xrotation Yrotation Zrotation
					JOINT LeftFoot
					{
						OFFSET 0.000000 -0.000004 19.147003
						CHANNELS 3 Xrotation Yrotation Zrotation
						JOINT LeftToeBase
						{
							OFFSET 0.000000 -0.000002 16.185699
							CHANNELS 3 Xrotation Yrotation Zrotation
							End Site
							{
								OFFSET -0.030746 0.903521 7.838623
							}
						}
					}
				}
			}
		}
	}
}
MOTION
Frames: 7
Frame Time: 0.041667
55.096703 -9.060955 96.075798 -3.921134 1.472416 1.800494 -1.490881 -0.217341 0.057546 1.021069 -0.434182 0.103616 2.666157 -0.432796 0.108787 1.887919 -9.934681 -14.568874 8.819513 -7.976776 -12.013434 -20.330707 -28.452304 -24.437969 -112.912630 -155.127748 -114.121444 0.000001 0.000000 -0.000003 112.362745 2.159069 -7.722840 0.000005 0.000009 -3.003509 -5.000186 -7.999488 0.000079 -14.334573 62.968013 17.051741 -50.234774 112.249146 37.230098 -0.000002 0.000002 0.000009 0.065311 8.162895 1.045330 -0.000005 -0.000009 3.025681 -5.000215 7.999060 -0.000131 -1.638606 -173.708554 2.734694 179.999991 -0.000004 -1.030001 168.732215 -0.580586 -0.568671 -0.000002 0.000001 0.122162 70.045735 6.451626 3.222805 25.456950 -7.355615 0.000010 -0.932372 171.184157 -2.783323 -0.000005 -0.000004 -0.854544 -13.419148 1.128689 0.805513 -0.000001 -0.000002 -0.113712 72.353854 -5.855775 -4.814409 25.459076 7.355610 -0.003190 
55.099503 -9.053465 96.074799 -3.927473 1.475318 1.809088 -1.489529 -0.217678 0.057956 1.023719 -0.434515 0.103408 2.668817 -0.433136 0.108585 1.856191 -9.961075 -14.605412 8.838396 -7.965794 -12.045040 -20.333997 -28.443966 -24.442862 -112.874333 -155.132516 -114.412663 0.000002 0.000001 -0.000002 112.648684 2.204632 -7.904563 0.000005 0.000010 -3.003511 -5.000188 -7.999489 0.000082 -14.344357 62.953758 17.062661 -50.192844 112.268680 37.194731 0.000000 0.000001 0.000010 0.065342 8.164975 1.046062 -0.000001 -0.000010 3.025620 -5.000214 7.999061 -0.000131 -1.628799 -173.713526 2.733530 179.999991 -0.000006 -1.030998 168.734919 -0.579612 -0.568449 -0.000001 -0.000000 0.122470 70.046629 6.453481 3.218281 25.456952 -7.355615 0.000010 -0.934913 171.182149 -2.775192 -0.000005 -0.000004 -0.854418 -13.426392 1.116399 0.806208 -0.000001 -0.000001 -0.114307 72.353703 -5.854986 -4.816596 25.459071 7.355610 -0.003190 
55.096806 -9.056415 96.075310 -3.933980 1.478119 1.817689 -1.488120 -0.218064 0.058429 1.026540 -0.434916 0.103320 2.671627 -0.433546 0.108503 1.822551 -9.989696 -14.641839 8.858924 -7.949816 -12.076996 -20.338782 -28.433838 -24.449972 -112.831556 -155.146436 -114.672825 0.000000 0.000001 -0.000004 112.919775 2.247646 -8.074706 0.000008 0.000011 -3.003502 -5.000187 -7.999489 0.000080 -14.355184 62.939893 17.074804 -50.149312 112.288945 37.157974 -0.000001 0.000000 0.000008 0.065371 8.167345 1.046686 -0.000003 -0.000009 3.025532 -5.000215 7.999061 -0.000132 -1.618862 -173.719482 2.732466 179.999991 -0.000005 -1.031995 168.737515 -0.578639 -0.568228 -0.000002 0.000000 0.122794 70.047606 6.455275 3.213940 25.456952 -7.355614 0.000009 -0.938246 171.180168 -2.765898 -0.000005 -0.000005 -0.854278 -13.435234 1.102993 0.806947 -0.000001 -0.000001 -0.115080 72.354462 -5.854407 -4.818165 25.459071 7.355612 -0.003191 
55.098003 -9.065149 96.075798 -3.940647 1.480811 1.826346 -1.486640 -0.218486 0.058958 1.029500 -0.435371 0.103355 2.674587 -0.434009 0.108546 1.787168 -10.020022 -14.678350 8.880932 -7.929667 -12.109196 -20.345021 -28.422336 -24.459109 -112.785131 -155.168087 -114.903439 -0.000001 0.000001 -0.000003 113.175278 2.287571 -8.233120 0.000006 0.000010 -3.003490 -5.000188 -7.999491 0.000080 -14.366948 62.926540 17.088035 -50.107712 112.308582 37.123717 -0.000001 0.000002 0.000009 0.065401 8.170004 1.047191 -0.000004 -0.000009 3.025402 -5.000213 7.999062 -0.000131 -1.608836 -173.724455 2.731482 179.999991 -0.000005 -1.031996 168.740124 -0.578643 -0.568202 -0.000002 -0.000000 0.123131 70.048487 6.457096 3.209610 25.456950 -7.355614 0.000008 -0.942210 171.180168 -2.755841 -0.000004 -0.000005 -0.854122 -13.445373 1.088814 0.807711 -0.000001 -0.000002 -0.115997 72.355855 -5.854133 -4.819050 25.459074 7.355611 -0.003190 
55.095303 -9.064429 96.075500 -3.947423 1.483373 1.835119 -1.485089 -0.218928 0.059539 1.032610 -0.435861 0.103520 2.677697 -0.434506 0.108719 1.750192 -10.051706 -14.715036 8.904261 -7.906207 -12.141639 -20.352239 -28.409996 -24.469800 -112.735858 -155.196337 -115.106023 -0.000001 0.000001 -0.000004 113.414355 2.324670 -8.379778 0.000007 0.000009 -3.003487 -5.000186 -7.999492 0.000085 -14.379428 62.913528 17.102119 -50.068060 112.327590 37.092059 -0.000001 0.000002 0.000009 0.065432 8.172937 1.047571 -0.000002 -0.000009 3.025231 -5.000215 7.999062 -0.000130 -1.598729 -173.729413 2.730576 179.999991 -0.000005 -1.033006 168.742624 -0.577671 -0.567982 -0.000002 -0.000000 0.123477 70.049368 6.458884 3.205374 25.456952 -7.355614 0.000008 -0.946661 171.179185 -2.745281 -0.000005 -0.000005 -0.853954 -13.456606 1.074213 0.808489 -0.000001 -0.000002 -0.117025 72.357931 -5.854005 -4.819323 25.459071 7.355610 -0.003191 
55.098602 -9.056693 96.055405 -3.954294 1.485795 1.844055 -1.483467 -0.219379 0.060165 1.035860 -0.436371 0.103819 2.680957 -0.435022 0.109026 1.711782 -10.084190 -14.751692 8.928736 -7.880283 -12.174321 -20.360282 -28.397147 -24.481649 -112.684857 -155.229805 -115.282556 -0.000003 0.000001 -0.000004 113.636364 2.358367 -8.515544 0.000006 0.000009 -3.003480 -5.000183 -7.999492 0.000077 -14.392494 62.900954 17.116895 -50.026437 112.347179 37.058790 -0.000001 0.000002 0.000009 0.065462 8.176127 1.047805 -0.000004 -0.000009 3.025043 -5.000214 7.999061 -0.000131 -1.588561 -173.734386 2.729774 179.999991 -0.000005 -1.034003 168.745028 -0.576699 -0.567763 -0.000001 -0.000000 0.123829 70.050338 6.460640 3.201228 25.456948 -7.355613 0.000009 -0.951448 171.178201 -2.734590 -0.000005 -0.000004 -0.853773 -13.468644 1.059533 0.809266 -0.000001 -0.000001 -0.118131 72.360390 -5.854125 -4.819112 25.459069 7.355612 -0.003190 
55.103806 -9.058835 96.059700 -3.961219 1.488087 1.853194 -1.481789 -0.219825 0.060831 1.039260 -0.436881 0.104257 2.684348 -0.435540 0.109472 1.672106 -10.116980 -14.788603 8.954186 -7.852728 -12.207248 -20.368867 -28.384122 -24.494230 -112.633002 -155.267303 -115.434596 0.000002 -0.000000 -0.000002 113.840470 2.388948 -8.637380 0.000004 0.000010 -3.003481 -5.000182 -7.999489 0.000079 -14.406006 62.888851 17.132206 -49.986425 112.365983 37.027582 -0.000000 0.000001 0.000006 0.065492 8.179555 1.047904 -0.000004 -0.000009 3.024830 -5.000212 7.999061 -0.000132 -1.578368 -173.739344 2.729074 179.999991 -0.000004 -1.035001 168.747227 -0.575711 -0.567544 -0.000002 -0.000000 0.124184 70.051390 6.462337 3.197166 25.456950 -7.355613 0.000009 -0.956417 171.178215 -2.724108 -0.000005 -0.000006 -0.853585 -13.481281 1.045123 0.810031 -0.000001 -0.000002 -0.119281 72.363320 -5.854360 -4.818295 25.459071 7.355611 -0.003190 
